<svg xmlns="http://www.w3.org/2000/svg" width="20.667" height="20.667" viewBox="0 0 20.667 20.667"><defs><style>.a{fill:#fdb913;}</style></defs><g transform="translate(-272 -27.02)"><path class="a" d="M282.333,27.02a10.334,10.334,0,1,0,10.333,10.334A10.333,10.333,0,0,0,282.333,27.02ZM284.5,42a4.862,4.862,0,0,1-.873.333v.357a1.292,1.292,0,1,1-2.583,0v-.317a4.107,4.107,0,0,1-1.464-.681,1.292,1.292,0,0,1,1.55-2.067,2.331,2.331,0,0,0,2.215.064c.283-.142.436-.312.436-.4,0-.155,0-.178-.172-.27a6.133,6.133,0,0,0-1.509-.4,7.751,7.751,0,0,1-2.254-.658,2.749,2.749,0,0,1-1.539-2.549,3.049,3.049,0,0,1,1.862-2.712,4.861,4.861,0,0,1,.875-.335v-.355a1.292,1.292,0,1,1,2.583,0v.316a4.108,4.108,0,0,1,1.464.682,1.292,1.292,0,0,1-1.55,2.067,2.333,2.333,0,0,0-2.217-.064c-.285.142-.434.31-.434.4,0,.155,0,.178.172.27a6.135,6.135,0,0,0,1.509.4,7.752,7.752,0,0,1,2.255.658,2.749,2.749,0,0,1,1.539,2.549A3.05,3.05,0,0,1,284.5,42Z" transform="translate(0 0)"/></g></svg>