<svg xmlns="http://www.w3.org/2000/svg" width="14" height="16" viewBox="0 0 14 16">
  <g id="Icon_closed" transform="translate(0 0.38)">
    <path id="Shape" d="M12.25,16H1.75A1.766,1.766,0,0,1,0,14.222V7.111A1.766,1.766,0,0,1,1.75,5.334h.875V4.445A4.415,4.415,0,0,1,7,0a4.415,4.415,0,0,1,4.375,4.445v.889h.876A1.766,1.766,0,0,1,14,7.111v7.111A1.766,1.766,0,0,1,12.25,16ZM7,8.889a1.778,1.778,0,1,0,1.75,1.778A1.766,1.766,0,0,0,7,8.889ZM7,1.778A2.649,2.649,0,0,0,4.375,4.445v.889H9.625V4.445A2.649,2.649,0,0,0,7,1.778Z" transform="translate(0 -0.38)" fill="#000"/>
  </g>
</svg>
